<svg width="178" height="42" viewBox="0 0 178 42" fill="none" xmlns="http://www.w3.org/2000/svg">
<ellipse cx="18" cy="16.5" rx="18" ry="16.5" fill="#F89174"/>
<ellipse cx="15.5" cy="20.5" rx="11.5" ry="10.5" fill="white"/>
<path d="M57.364 4.346H53.368C53.476 4.994 53.584 6.236 53.584 6.83C53.557 13.958 52.315 18.548 48.778 22.058C47.698 23.165 46.348 24.056 45.214 24.677L48.373 27.215C54.34 22.976 56.878 17.495 57.175 6.776C57.202 6.128 57.283 4.994 57.364 4.346ZM66.517 10.151L64.195 8.99C63.547 9.125 62.845 9.179 62.143 9.179H49.642C48.616 9.179 47.239 9.125 46.105 8.99V12.554C47.239 12.446 48.751 12.419 49.669 12.419H62.845C62.845 15.335 62.467 20.735 61.684 22.436C61.414 23.111 61.036 23.408 60.172 23.408C59.092 23.408 57.715 23.246 56.365 23.03L56.797 26.621C58.12 26.729 59.713 26.864 61.279 26.864C63.115 26.864 64.168 26.135 64.735 24.785C65.896 22.031 66.247 14.498 66.355 11.555C66.355 11.258 66.436 10.583 66.517 10.151ZM82.366 7.802C82.366 9.314 82.366 11.366 82.366 13.175C82.366 18.197 80.692 22.436 74.995 25.055L78.37 27.539C84.553 23.84 86.065 19.034 86.065 13.175C86.065 11.366 86.065 9.341 86.065 7.829C86.065 6.992 86.146 5.507 86.281 4.643H82.015C82.258 5.507 82.366 6.911 82.366 7.802ZM72.322 10.583V14.336C73.186 14.255 74.266 14.201 75.427 14.201C76.885 14.201 90.493 14.201 92.113 14.201C93.193 14.201 94.543 14.255 95.11 14.309V10.61C94.543 10.691 93.382 10.772 92.14 10.772C90.493 10.772 76.885 10.772 75.346 10.772C74.266 10.772 73.159 10.691 72.322 10.583ZM118.654 5.048H114.577C114.685 5.804 114.766 6.668 114.766 7.775C114.766 8.936 114.766 11.528 114.766 12.878C114.766 17.09 114.388 19.115 112.552 21.14C110.905 22.895 108.745 23.921 106.045 24.542L108.88 27.539C110.851 26.891 113.632 25.595 115.414 23.624C117.439 21.41 118.573 18.926 118.573 13.094C118.573 11.771 118.573 9.152 118.573 7.775C118.573 6.668 118.6 5.804 118.654 5.048ZM106.153 5.291H102.238C102.319 5.912 102.346 6.857 102.346 7.343C102.346 8.531 102.346 14.903 102.346 16.442C102.346 17.279 102.265 18.332 102.211 18.818H106.153C106.099 18.197 106.045 17.144 106.045 16.469C106.045 14.957 106.045 8.531 106.045 7.343C106.045 6.506 106.099 5.912 106.153 5.291ZM149.758 7.748L147.625 5.75C147.112 5.885 145.627 5.993 144.871 5.993C143.467 5.993 132.019 5.993 130.318 5.993C129.211 5.993 128.077 5.858 127.024 5.696V9.476C128.293 9.341 129.211 9.287 130.318 9.287C132.019 9.287 142.765 9.287 144.412 9.287C143.71 10.61 141.604 12.986 139.417 14.309L142.225 16.55C144.898 14.66 147.463 11.231 148.732 9.125C148.975 8.747 149.488 8.099 149.758 7.748ZM138.769 11.366H134.854C134.989 12.257 135.016 12.959 135.016 13.823C135.016 18.251 134.368 21.086 130.966 23.462C129.967 24.218 128.995 24.677 128.104 24.974L131.263 27.539C138.607 23.57 138.769 18.062 138.769 11.366Z" fill="#F89174"/>
</svg>
